<?xml version="1.0" encoding="UTF-8"?>
<svg id="Layer_2" data-name="Layer 2" xmlns="http://www.w3.org/2000/svg" viewBox="0 0 100 100">
  <defs>
    <style>
      .cls-1 {
        fill: #f5f5f5;
      }
    </style>
  </defs>
  <g id="Layer_1-2" data-name="Layer 1">
    <rect class="cls-1" width="100" height="100" rx="21.72" ry="21.72"/>
    <path d="m46.65,22.71v8.85h.71c4.65,0,9.31-.03,13.96,0,2.65.02,4.6,1.3,5.69,3.69,1.09,2.39.73,4.7-.95,6.72-2.41,2.89-4.87,5.74-7.3,8.61-2.79,3.29-5.59,6.58-8.38,9.87-1.29,1.52-1.58,3.23-.77,5.05.83,1.86,2.35,2.79,4.39,2.8,5.22.01,10.45,0,15.67,0h.7c.01-.24.03-.43.03-.63,0-2.32,0-4.65,0-6.97,0-.37-.22-.88.54-.86.76.01.51.54.51.9.02,2.28,0,4.58.01,6.86,0,.22.02.43.03.7h16.93c1.97,0,3.71-1.15,4.43-2.92.75-1.85.28-3.74-1.11-5.24-1.57-1.71-3.02-3.53-4.52-5.3-3.44-4.08-6.85-8.17-10.32-12.21-.99-1.15-1.78-2.32-2.04-3.83-.55-3.19,1.77-6.54,4.96-7.12.38-.07.77-.11,1.15-.11,5.51,0,11,0,16.51,0,.26,0,.59.07.74.24.17.18.26.55.2.79-.05.21-.34.4-.57.51-.16.08-.4.03-.6.03h-15.95c-2.43,0-4.31,1.48-4.8,3.83-.31,1.48.08,2.82,1.04,3.97,2.1,2.5,4.24,4.97,6.35,7.46,2.88,3.4,5.73,6.84,8.65,10.22.92,1.06,1.76,2.11,2.11,3.5.95,3.85-2.01,7.71-5.97,7.76-.9.01-1.81,0-2.72,0-4.64.01-9.27.03-13.9.03-.49,0-.63.15-.62.63.02,2.03,0,4.06,0,6.08v.69h-1.05v-7.39h-12.68c-1.53,0-3.07.03-4.59-.08-3.34-.25-5.96-3.59-5.54-6.91.21-1.61.98-2.88,2.03-4.08,2.2-2.51,4.32-5.09,6.48-7.63,2.9-3.42,5.8-6.83,8.69-10.26,1.29-1.52,1.55-3.25.74-5.06-.82-1.81-2.32-2.75-4.3-2.76-4.65-.03-9.31,0-13.96-.02-.52,0-.65.15-.65.65.03,1.99,0,3.98,0,5.98v.71h-1.05v-7.22c-2.18-.42-4.32.74-5.14,2.63-.27.62-.44,1.35-.44,2.02-.03,8.85,0,17.71-.03,26.56,0,2.19-1,3.88-2.98,4.87-1.95.96-3.87.79-5.64-.48-.39-.28-.73-.68-.98-1.09-6.8-10.96-13.62-21.91-20.34-32.91-.95-1.56-3.63-2.35-5.44-.83-.95.8-1.4,1.81-1.4,3.05v32.54c0,.86-.27,1.26-.83,1.25-.53-.01-.8-.42-.8-1.23,0-10.86-.01-21.73,0-32.59,0-2.26,1.05-3.98,3.12-4.94,2.08-.96,4.06-.65,5.84.82.25.2.44.49.62.77,6.81,10.98,13.61,21.96,20.4,32.94,1.44,2.32,4.84,2.28,6.25-.08.4-.66.58-1.37.58-2.16,0-8.78,0-17.56,0-26.34,0-3.71,2.74-6.46,6.46-6.46h.69c.02-.15.05-.27.05-.39v-8.19c0-.09-.02-.18-.03-.28h1.11,0Z"/>
  </g>
</svg>